<svg width="20" height="20" viewBox="0 0 20 20" fill="none" xmlns="http://www.w3.org/2000/svg">
<path d="M10 0C4.48 0 0 4.48 0 10C0 15.52 4.48 20 10 20C15.52 20 20 15.52 20 10C20 4.48 15.52 0 10 0ZM3.23 5.75C4.1 6.62 4.7 7.74 4.91 9H2.07C2.22 7.82 2.63 6.72 3.23 5.75ZM2.07 11H4.91C4.7 12.26 4.1 13.38 3.23 14.25C2.63 13.28 2.22 12.18 2.07 11ZM9 17.93C7.27 17.71 5.71 16.93 4.51 15.79C5.81 14.55 6.7 12.88 6.93 11H9V17.93ZM9 9H6.93C6.69 7.12 5.81 5.44 4.5 4.2C5.71 3.06 7.27 2.29 9 2.07V9ZM17.93 9H15.09C15.3 7.74 15.9 6.62 16.77 5.75C17.37 6.72 17.78 7.82 17.93 9ZM11 2.07C12.73 2.29 14.29 3.06 15.5 4.2C14.19 5.44 13.31 7.12 13.07 9H11V2.07ZM11 17.93V11H13.07C13.31 12.88 14.19 14.55 15.49 15.79C14.29 16.93 12.73 17.71 11 17.93ZM16.77 14.25C15.9 13.39 15.31 12.26 15.09 11H17.93C17.78 12.18 17.37 13.28 16.77 14.25Z" fill="black" fill-opacity="0.6"/>
</svg>
